<svg id="Layer_1" data-name="Layer 1" xmlns="http://www.w3.org/2000/svg" viewBox="0 0 492.4 463.69"><defs><style>.cls-1{fill:#e6e6e6;}.cls-2{opacity:0.1;isolation:isolate;}.cls-3{fill:#0a4c61;}.cls-4{fill:#f2f2f3;}.cls-5{fill:#081e25;}.cls-6{fill:#f9b6b8;}.cls-7{fill:#1dbbb7;}</style></defs><title>galaxy</title><polygon class="cls-1" points="357.49 263.13 357.49 391.22 378.91 426.13 380.54 428.79 465.08 428.79 466.79 263.13 357.49 263.13"/><polygon class="cls-2" points="357.49 263.13 357.49 391.22 378.91 426.13 380.23 263.13 357.49 263.13"/><polygon class="cls-1" points="153.41 259.72 153.41 387.8 131.98 422.72 130.35 425.37 45.81 425.37 44.11 259.72 153.41 259.72"/><polygon class="cls-2" points="153.41 259.72 153.41 387.8 131.98 422.72 130.67 259.72 153.41 259.72"/><polygon class="cls-1" points="492.4 257.15 492.4 264.84 33.01 264.84 33.01 253.74 75.7 231.54 454.83 231.54 492.4 257.15"/><polygon class="cls-2" points="492.4 257.15 492.4 264.84 33.01 264.84 33.01 253.74 492.4 257.15"/><polygon class="cls-3" points="98.76 295.58 78.26 295.58 69.72 289.6 108.15 289.6 98.76 295.58"/><polygon class="cls-3" points="98.76 320.34 78.26 320.34 69.72 314.37 108.15 314.37 98.76 320.34"/><polygon class="cls-3" points="98.76 355.35 78.26 355.35 69.72 349.38 108.15 349.38 98.76 355.35"/><polygon class="cls-3" points="98.76 390.36 78.26 390.36 69.72 384.38 108.15 384.38 98.76 390.36"/><polygon class="cls-3" points="412.14 299 432.63 299 441.17 293.02 402.74 293.02 412.14 299"/><polygon class="cls-3" points="412.14 323.76 432.63 323.76 441.17 317.78 402.74 317.78 412.14 323.76"/><polygon class="cls-3" points="412.14 358.77 432.63 358.77 441.17 352.79 402.74 352.79 412.14 358.77"/><polygon class="cls-3" points="412.14 393.78 432.63 393.78 441.17 387.8 402.74 387.8 412.14 393.78"/><path class="cls-3" d="M426.94,83.42H254.41a6.52,6.52,0,0,0-6.52,6.52h0V206.16a6.52,6.52,0,0,0,6.52,6.53H319.9l-2.45,15.66s-14,7.45-4.16,7.67,56.31,0,56.31,0,9,0-5.26-7.88L362,212.69h64.91a6.52,6.52,0,0,0,6.52-6.52h0V89.94a6.52,6.52,0,0,0-6.52-6.52Z" transform="translate(-0.85)"/><rect class="cls-4" x="257.75" y="94.16" width="166.32" height="89.28"/><circle class="cls-4" cx="339.83" cy="87.25" r="1.1"/><circle class="cls-4" cx="339.83" cy="203.82" r="4.16"/><polygon class="cls-3" points="333.34 247.85 333.34 250.04 215.47 250.04 215.47 248.29 215.63 247.85 218.53 239.97 330.93 239.97 333.34 247.85"/><path class="cls-3" d="M379.55,245.71c-.21.92-1,1.89-2.86,2.8-6.57,3.29-19.93-.87-19.93-.87s-10.3-1.76-10.3-6.36a8.24,8.24,0,0,1,.9-.54c2.76-1.46,11.93-5.07,28.17.16a6.68,6.68,0,0,1,3.09,2A3.22,3.22,0,0,1,379.55,245.71Z" transform="translate(-0.85)"/><path class="cls-2" d="M379.55,245.71c-8,3.08-15.22,3.31-22.58-1.8a16.14,16.14,0,0,0-9.61-3.17c2.76-1.46,11.93-5.07,28.17.16a6.68,6.68,0,0,1,3.09,2A3.22,3.22,0,0,1,379.55,245.71Z" transform="translate(-0.85)"/><ellipse class="cls-4" cx="368.62" cy="243.03" rx="2.85" ry="0.88"/><polygon class="cls-2" points="333.34 247.85 333.34 250.04 215.47 250.04 215.47 248.29 215.63 247.85 333.34 247.85"/><path class="cls-5" d="M66.39,0A5.9,5.9,0,0,0,63,.79a9,9,0,0,0-2.32,3.06,36.68,36.68,0,0,1-10,11.29c-3,2.18-6.74,4.89-6.23,8.9a12,12,0,0,0,1.45,3.76c2.73,5.53,10.21,9.8,9.48,16.11,2.72-4.55-.92-6.81,1.8-11.36,1.29-2.17,3.55-4.62,5.5-3.26.66.46,1.09,1.27,1.77,1.67,1.63,1,3.36-.87,4.8-2.16,5-4.46,12-3.29,18.22-1.9,2.92.65,6.13,1.51,7.85,4.3C97.54,34.87,93.12,38.83,92,43a2.27,2.27,0,0,0,1.62,2.76,2.38,2.38,0,0,0,.8,0c1.86-.18,4.06-.33,4.17-1.14,2.33.08,5.19-.18,6.19-2.61a10.09,10.09,0,0,0,.48-3c.37-4.08,2.1-7.81,3.25-11.69s1.65-8.44-.29-11.89a13.9,13.9,0,0,0-2.54-3.08C94.69,1.76,80.23,0,66.39,0Z" transform="translate(-0.85)"/><path class="cls-6" d="M57.72,51.88s2.39,19.93-6.38,21.52,8,28.69,8,28.69l39.85,4.79L89.6,75s-6.38-2.39-2.39-18.33S57.72,51.88,57.72,51.88Z" transform="translate(-0.85)"/><polygon class="cls-6" points="32.56 394.2 35.75 438.03 52.49 438.03 47.7 394.2 32.56 394.2"/><polygon class="cls-6" points="155.3 311.31 157.69 347.97 176.02 340 168.85 309.71 155.3 311.31"/><path class="cls-5" d="M21.45,226.83s.8,46.22,5.58,61.36,4,15.95,3.19,18.34-1.59.79-1.59,4.78-1.6,66.95,0,72.53-4.79,15.14,0,15.94,27.09,0,27.89-4.79-6.38-6.37-3.19-9.56,8-68.54,8-68.54l11.16-45.43,20.72-23.91H137l13.55,52.6S145,315.29,149,315.29s27.9,4.79,27.9-12.75-8-69.34-9.57-70.93.8-7.18-1.59-9.57-30.29-19.13-40.65-22.31-24.89-7-24.89-7Z" transform="translate(-0.85)"/><path class="cls-5" d="M176.87,333.62s-12-4-17.54,8-3.18,15.15-3.18,15.15,18.33,6.37,21.52,3.19c1.38-1.39,5.79-1.87,10.32-2,6.91-.16,8.74-9.93,2.22-12.2a5.76,5.76,0,0,0-.59-.18C183.25,344,176.87,333.62,176.87,333.62Z" transform="translate(-0.85)"/><circle class="cls-6" cx="74.8" cy="41.12" r="23.91"/><path class="cls-7" d="M44.57,83.36s39.05,8,48.61-4.78,13.55,35.87,13.55,35.87l4.78,51-7.17,27.89S66.88,223.64,54.93,226s-30.29,4-30.29,4,5.58-88.46,5.58-90.06S44.57,83.36,44.57,83.36Z" transform="translate(-0.85)"/><path class="cls-5" d="M56.44,68.42s-8.69-5-11.08-.2S20.66,85,18.26,85s4.79,66.15,1.6,74.12S1.53,225.23,10.29,230s2.4-4.78,11.16,7.18,51.81,11.95,54.2,7.17-19.13-40.65-15.14-74.12,10.36-79.7,4.78-86.08S56.44,68.42,56.44,68.42Z" transform="translate(-0.85)"/><path class="cls-5" d="M85.21,73.8,86.32,70s33.16,11,34.76,18.17.8,57.38-4.78,61.37-13.55,10.36-8,19.92,12,19.93,16.73,20.72,13.55,6.38,11.16,12-31.08-4.78-31.08-4.78S86,183,86.81,160.67,85.21,73.8,85.21,73.8Z" transform="translate(-0.85)"/><path class="cls-6" d="M113.11,167.85,94,203.71s-27.9,28.69-12,31.88,24.71-26.3,24.71-26.3l20.72-29.49Z" transform="translate(-0.85)"/><path class="cls-5" d="M67.55,6.28a5.28,5.28,0,0,0-2.79.54A6.5,6.5,0,0,0,62.86,9a27.46,27.46,0,0,1-8.13,8c-2.42,1.54-5.49,3.46-5.08,6.29a8.05,8.05,0,0,0,1.18,2.66,20.89,20.89,0,0,1,2.54,13L60,29.27C61.07,27.73,62.9,26,64.5,27c.53.33.88.9,1.43,1.19,1.33.67,2.74-.62,3.91-1.53,4-3.16,9.8-2.33,14.83-1.35,2.38.47,5,1.07,6.39,3.05,2.34,3.27-.1,8,1.26,11.79a3.44,3.44,0,0,0,1.44-2.29c1.9.06,4.23-.13,5-1.85a6.51,6.51,0,0,0,.39-2.1c.3-2.88,1.71-5.52,2.64-8.26s1.34-6-.24-8.4A10.19,10.19,0,0,0,99.54,15C90.59,7.5,78.82,6.26,67.55,6.28Z" transform="translate(-0.85)"/><path class="cls-5" d="M113.11,85l7.42,2s17.29,44.25,13.3,74.54-6.38,23.91-6.38,23.91-6.37-14.35-20.72-11.16Z" transform="translate(-0.85)"/><path class="cls-5" d="M34.51,432.24c-1.92,2.61-1.54,6.34-3.24,9.1-1.47,2.4-4.25,3.65-6.1,5.77a16,16,0,0,0-1.57,2.26c-1.71,2.87-3.1,6.54-1.42,9.43,1.36,2.32,4.21,3.22,6.83,3.84,3.3.78,6.74,1.41,10.08.81s6.61-2.65,7.8-5.83a24.32,24.32,0,0,1,.84-2.35c1.81-3.57,7.49-3.61,9.35-7.15,1.3-2.48.1-5.48-1.09-8l-3.64-7.74c-1.21-2.56-6.11-1.09-8.67-1.7C40.35,429.86,36.91,429,34.51,432.24Z" transform="translate(-0.85)"/><path class="cls-6" d="M7.9,183.79l33.48,51.8s20.72,26.3,27.1,14.35-22.32-31.88-22.32-31.88L24.64,178.21Z" transform="translate(-0.85)"/><path class="cls-5" d="M24.64,86.55,18.26,85s-12.75,4-15.94,20.72-.79,83.69,3.19,84.48,19.68-11.65,22.2-9-5.46-10.91-3.07-18.09S24.64,86.55,24.64,86.55Z" transform="translate(-0.85)"/><path class="cls-3" d="M275.82,190.75H254.13c-.4,0-.51,0-.51-.38q0-50.28,0-100.58c0-.43.25-.37.59-.37h43.52c0,.16-.32.34,0,.45a.7.7,0,0,0,.65-.18,1.86,1.86,0,0,0,.22-.27h22.88c.19.27.38.18.56,0H422.19c.09.13.18.06.28,0,1.83,0,3.67,0,5.51,0,.41,0,.5.07.5.39,0,5.69,0,11.38,0,17.06V119c-.15,0-.28,0-.28.15s.13.16.28.17v13c-.18,0-.4-.13-.46.06s.23.25.46.26V172.4c-.57.4-.57.49,0,.86,0,5.69,0,11.38,0,17.06,0,.37-.1.44-.57.44H374.33c-.24-.35-.47-.47-.7,0h-24.7a.32.32,0,0,0-.32-.4c-.37,0-.43.2-.52.4H276.23a6.36,6.36,0,0,0,.64-.63c.21-.27.15-.55-.18-.76a1.28,1.28,0,0,0-1.23-.1.51.51,0,0,0-.29.74C275.28,190.3,275.6,190.51,275.82,190.75Zm43.12-53.65-.34,0c-.15,0-.26.09-.25.21a.28.28,0,0,0,.16.16.43.43,0,0,0,.38-.08c.14-.11.09-.22,0-.34.19,0,.44,0,.39-.25,0,0-.1-.09-.14-.09C318.85,136.77,319,137,318.94,137.1ZM364,117.22c.51,0,.22-.26.17-.41-.16-.49-.77-.75-1-1.2a1.34,1.34,0,0,0-1.14-.26.86.86,0,0,0-.32.63c0,.17.24.17.43.18s.43.21.4.42.07.68-.13,1c-.05.08-.07.24,0,.24.63,0,.51.43.72.66s.54.6,1.09.32.69-.63.23-1a1.56,1.56,0,0,1-.43-.54ZM315.58,164.9c0-.08,0-.18-.14-.22a.19.19,0,0,0-.09,0c0,.11.14.12.24.16a1.33,1.33,0,0,0,1.6.54c.66-.18.54-.63.42-1-.22-.61.43-1,.78-1.28s.34-.45.19-.73a2.4,2.4,0,0,1-.44-1.44c0-.18.15-.44-.21-.49s-.39.21-.5.38-.17.25-.13.35c.18.43-.19.69-.44,1-.46.57-.95,1.14-.65,1.89C316.36,164.51,316,164.76,315.58,164.9ZM365.1,138c.26,0,.68.14.8-.25.38-1.15.64-2.31,1.11-3.43a2.35,2.35,0,0,1,.57-1,1.56,1.56,0,0,0,.48-1.47,5.86,5.86,0,0,1,.39-2.79c.4-1,.31-2,.71-2.93.34-.79.53-1.62.88-2.41a1.09,1.09,0,0,0-.22-1.35c-.51-.51-1.19-1-.91-1.74,0-.11-.09-.28-.18-.4a1.49,1.49,0,0,1-.3-1.24c.06-.2,0-.43-.29-.4a6.71,6.71,0,0,1-2.16-.28c-.47-.09-.66.11-.56.46a3.89,3.89,0,0,1,.05.9c.06.78-.15,1.65.69,2.27.59.43.43.93.54,1.43s.18,1-.58,1.37c-.12,0-.18.21-.23.33a2.16,2.16,0,0,1-.83.9c-.58.38-.63.67-.2,1.17a1.08,1.08,0,0,1,.26.75c0,.49-.37.84-.62,1.23a.72.72,0,0,1-.94.33c-.4-.12-.79-.06-.86.31s.29.45.67.44.58.17.49.48a3,3,0,0,1-.28.93c-.41.63-.58,1.49-1.89,1.42,0,0-.12.08-.11.12.08.47-.4.44-.77.51-.15,0-.38,0-.4.16-.08.48-.68.74-.82,1.21s-.71.55-1.21.23a2.32,2.32,0,0,1-.91-.93,1.83,1.83,0,0,0-.92-.85,2.51,2.51,0,0,1-1.31-1.4,1,1,0,0,0-1.19-.58c-.31,0-.66.08-.83-.13-.63-.78-1.71-1.27-2.26-2.09a4,4,0,0,0-1-1,2.35,2.35,0,0,1-.87-1,.83.83,0,0,0-.68-.48c-1-.22-1.68-.86-2.74-.93-.08,0-.15-.08-.21-.13a1.67,1.67,0,0,0-2.36.46.49.49,0,0,1-.5.31,3.26,3.26,0,0,1-1.17-.11c-.26-.11-.61-.16-.64-.44s.3-.27.52-.36.25-.17.18-.3-.29-.16-.47-.1c-.56.17-1.18.29-1.14.92,0,.21-.16.39-.42.45a20.27,20.27,0,0,0-3.38,1.11,9.31,9.31,0,0,1-3.07,1,.23.23,0,0,0-.12.06c-1,.59-2.19.84-3.19,1.4a9.14,9.14,0,0,1-2.42.93,12.57,12.57,0,0,0-2.7,1,3.42,3.42,0,0,1-1.13.37c-.37,0-.9.1-1,.5a3.21,3.21,0,0,1-.46,1.45c-.05.08-.08.18.07.23a.24.24,0,0,0,.28-.11c.09-.13.14-.27.22-.39a1.12,1.12,0,0,1,1.09-.44c1.16.06,2.34.23,3.33-.47.22-.15.61-.43.91-.15s0,.57-.2.83a.81.81,0,0,1-.14.12,36,36,0,0,1-3.25,2.72,5.51,5.51,0,0,0-1.13,1,3.62,3.62,0,0,1-1.59,1c-.33.11-.47.24-.44.52a.9.9,0,0,1-.43.92c-1.13.71-1.63,1.87-3,2.44a.22.22,0,0,0-.1.13c-.38.85-.19,1.86-1.18,2.55-.06,0-.05.13-.07.2a2.05,2.05,0,0,1-.6,1.08c-1,.93-1.28,2.12-2,3.15a2,2,0,0,0-.29.6c-.38,1.34,0,2.75-.58,4.08a.45.45,0,0,0,0,.32,1.34,1.34,0,0,1-.5,1.67.5.5,0,0,0-.14.35,1,1,0,0,1-.53.78.83.83,0,0,0-.4.92c.08.46.4,1-.34,1.34-.11.05-.15.23-.16.35a1.93,1.93,0,0,1-.13,1,.16.16,0,0,0,.18.23,3.15,3.15,0,0,1,1.24.31,1.21,1.21,0,0,0,1.09-.19c.29-.22-.1-.38-.21-.55a4.61,4.61,0,0,0-.54-.63c-.41-.44-.23-.84.49-.92.37,0,.44-.16.44-.42a3.21,3.21,0,0,1,.8-2.46l0-.05c.55-.7.32-1.63,1.13-2.26,0,0,0-.11,0-.16-.14-.25,0-.43.19-.64.43-.6,1.11-1.1,1.28-1.82.08-.38.55-.51,1-.52a1.65,1.65,0,0,0,1.41-.8,8.6,8.6,0,0,1,1.78-2.07,5.39,5.39,0,0,0,1.39-1.16,6.41,6.41,0,0,1,1.12-1.21,15.1,15.1,0,0,0,1.3-1,1.1,1.1,0,0,1,1.45-.32,2.91,2.91,0,0,0,.66.17,1.3,1.3,0,0,1,1.05.78,7.54,7.54,0,0,0,1.42,2c.58.68,1.2,1.35,1.75,2.06a1.34,1.34,0,0,0,1,.7,4,4,0,0,1,3,1.15,1.33,1.33,0,0,0,.54.33,4.81,4.81,0,0,1,1.89,1.15,1.32,1.32,0,0,0,.74.38,3.78,3.78,0,0,0,2.42,0,.67.67,0,0,1,.4,0c1,.2,2,.07,2.91.25A8.38,8.38,0,0,0,348,153a17.53,17.53,0,0,1,2.23-.69.72.72,0,0,0,.74-.73c0-.46.35-.77.86-1,.18-.07.39-.11.58-.17.92-.31,2-.5,2.14-1.47a.7.7,0,0,1,.29-.36c.19-.16.4-.24.42.1,0,.1,0,.23.16.25a.34.34,0,0,0,.32-.18,4,4,0,0,1,1.49-1.09,3.63,3.63,0,0,0,1.59-1.5.45.45,0,0,0,0-.61c-.4-.4-.28-.8,0-1.2a4,4,0,0,0,.67-1.18,1.6,1.6,0,0,1,.78-.85,9.2,9.2,0,0,0,2.13-2.14c.3-.31.61-.68.44-1.14-.07-.22.2-.3.44-.33a1.25,1.25,0,0,0,1-.54A.79.79,0,0,1,365.1,138Zm-74.22-20.71c.08-.47-.5-.86-.51-1.37,0-.08-.13-.09-.23-.07a5.63,5.63,0,0,0-2.39.78c-.28.22-.4.38-.12.68a2.39,2.39,0,0,1,.62,1.13c0,.12.05.29.28.18a4.53,4.53,0,0,1,1.15-.19C290.43,118.26,290.88,117.86,290.88,117.25Zm-14.62,9c0,.56.4.88,1.16.89a1.21,1.21,0,0,0,1.32-1,1.08,1.08,0,0,0-1.1-1.22A1.31,1.31,0,0,0,276.26,126.24Zm64.89,36.12a1.33,1.33,0,0,0-1.15.49.86.86,0,0,0,.24,1.15,2.31,2.31,0,0,0,1.22.43.3.3,0,0,0,.22-.1c.18-.45.56-.89.32-1.38A.82.82,0,0,0,341.15,162.36Zm4.64-2.27a1.78,1.78,0,0,0-1,.12.73.73,0,0,0-.42,1,.88.88,0,0,0,1.07.39,2,2,0,0,0,1.23-.89c.17-.24,0-.46-.34-.55A3.16,3.16,0,0,0,345.79,160.09ZM296.57,119.3a.83.83,0,0,0-.95-.75c-.59,0-1.05.36-1,.77s.43.71,1,.71S296.59,119.72,296.57,119.3Zm42.64-1c.23,0,.23,0,.73-.6.14-.18.26-.36.11-.55a.35.35,0,0,0-.53,0,.82.82,0,0,1-.66.18,1.55,1.55,0,0,0-1.52.76c0,.15-.08.3.08.4a.45.45,0,0,0,.45,0A2.13,2.13,0,0,1,339.21,118.34Zm-3.2,6.41a.77.77,0,0,0-.56-.69,9.24,9.24,0,0,0-1.09-.15.51.51,0,0,0-.57.21.26.26,0,0,0,0,.36.6.6,0,0,0,.63.1c.55-.23.58.09.63.36s-.12.37-.22.55.07.41.32.53.32,0,.33-.1A4.09,4.09,0,0,1,336,124.75ZM422.82,139c-.07-.39-.63-.48-.79-.8s-.56-.32-.93-.23-.67.27-.64.61.3.51.71.57a11.5,11.5,0,0,1,1.16.15C422.63,139.35,422.82,139.22,422.82,139Zm3.9,5.6a.68.68,0,0,0-.79-.71c-.56,0-1,.3-1,.67s.44.69,1,.67S426.73,145,426.72,144.58Zm-120,16.75c.47,0,.92-.32.93-.65s-.46-.71-.95-.7-.9.33-.89.68S306.27,161.32,306.76,161.33Zm106.14-63c.58,0,1.54-.54,1.41-.79-.24-.43-.86-.31-1.32-.37s-.8.18-.81.56S412.49,98.3,412.9,98.33Zm-143.32,4.61a.78.78,0,0,0-.77-.76.85.85,0,0,0-.93.77c0,.48.47.52.92.52S269.55,103.26,269.58,102.94ZM426,160.59a.69.69,0,0,0-.73-.7c-.48,0-1,.35-1,.69s.27.61.76.65S426,160.93,426,160.59Zm-84.79-4c.49,0,.87-.26.89-.59a.74.74,0,0,0-.79-.67c-.47,0-.84.28-.82.64S340.75,156.57,341.17,156.61Zm62-41.43c-.44,0-.81.16-.85.56s.44.71.89.68.69-.27.71-.61S403.68,115.21,403.15,115.18Zm20,58.75c-.6,0-1,.35-.78.72a2.79,2.79,0,0,0,1.63.54c.56-.31-.18-.48-.2-.74a.51.51,0,0,0-.09-.25A.61.61,0,0,0,423.13,173.93Zm-13.57-24.51a.62.62,0,0,0-.71-.55c-.42,0-.7.23-.7.56s.32.55.77.57S409.51,149.72,409.56,149.42Zm-89.81-13.81c.21-.22.83.12.88-.36,0-.31-.48-.63-.9-.6s-.65.18-.65.51S319.32,135.6,319.75,135.61ZM271,133.32a.72.72,0,0,0-.71-.54c-.39,0-.66.2-.68.5s.23.55.67.54A.66.66,0,0,0,271,133.32Zm79.44,28.44c.4,0,.67-.17.7-.48s-.21-.51-.62-.53-.66.17-.7.48S350,161.71,350.44,161.76Zm77.93-18.32a.5.5,0,0,0-.56-.46c-.4,0-.72.19-.68.54s.32.47.71.46S428.36,143.75,428.37,143.44Zm-75.8,9.78a.77.77,0,0,0-.73-.4.69.69,0,0,0-.65.61c0,.21.22.33.47.29S352.43,153.58,352.57,153.22ZM255.73,91.15c-.34,0-.63.13-.62.44s.27.44.63.45.65-.12.64-.43S256.12,91.18,255.73,91.15ZM354,167.24c-.3.06-.56.18-.54.46s.22.44.58.43.56-.19.56-.45S354.38,167.26,354,167.24Zm-97.52.94c.29-.05.55-.17.55-.45s-.22-.43-.58-.42-.55.2-.54.46S256.13,168.15,256.48,168.18Zm19.34,10.1c.34,0,.55-.18.56-.45s-.19-.44-.55-.46-.56.16-.55.43S275.46,178.23,275.82,178.28Zm77.81-24.85c.29-.2,1,.14,1.06-.41,0-.14,0-.34-.27-.37a2.27,2.27,0,0,0-1.13.62C353.3,153.42,353.44,153.43,353.63,153.43ZM343,186.28c.29-.06.5-.2.5-.47s-.19-.41-.51-.41-.57.15-.58.42S342.59,186.24,343,186.28Zm67.26-2.69c.35,0,.54-.2.57-.45s-.18-.39-.49-.4-.55.11-.58.36S409.9,183.53,410.24,183.59ZM361.82,94.26c.3,0,.56-.11.6-.36s-.21-.38-.52-.39-.56.09-.6.34S361.52,94.21,361.82,94.26Zm-30.41,31.41c-.13-.26-.41-.28-.72-.25s-.56.07-.62.33c0,.09.08.15.17.12a1.83,1.83,0,0,1,.87,0A.23.23,0,0,0,331.41,125.67Zm85.83-1.56c-.1,0-.19.06-.2.09-.11.26.2.44.2.69s.18.25.39.26.43-.11.39-.29C417.94,124.51,417.43,124.41,417.24,124.11Zm-7.61,2.09c-.27,0-.44.13-.42.31,0,.35.42.39.75.45.15,0,.3-.06.26-.18S410,126.25,409.63,126.2Zm-154.72-5.26a.52.52,0,0,0-.59-.37c-.31,0-.46.16-.45.39s.16.33.44.33S254.85,121.2,254.91,120.94Zm94.77-12.15c-.23-.05-.43,0-.46.19s.25.4.56.44.48,0,.51-.25S350,108.84,349.68,108.79ZM279.8,171.71c-.05-.23-.24-.34-.53-.32s-.44.12-.43.33.19.32.45.33S279.76,171.94,279.8,171.71Zm144.57-32.08c-.3,0-.47.14-.49.36s.13.33.39.35.48-.11.49-.34S424.63,139.67,424.37,139.63ZM308.62,124.09c.26,0,.46-.1.47-.32s-.14-.38-.45-.38-.49.14-.48.37S308.36,124.07,308.62,124.09Zm58.64,61.15a.4.4,0,0,0-.43-.35c-.3,0-.48.12-.5.35s.15.34.42.34A.44.44,0,0,0,367.26,185.24Zm6.2-89.8c.21,0,.42-.11.41-.33s-.21-.33-.47-.32-.51.11-.48.36S373.17,95.43,373.46,95.44ZM356.88,118c0-.28-.23-.45-.59-.5-.16,0-.27.06-.25.18,0,.28.29.43.61.51S356.89,118.09,356.88,118ZM255,143.55c-.27,0-.45.12-.45.33s.15.34.42.34.46-.1.46-.32S255.21,143.58,255,143.55Zm38.32,1.27c.22,0,.4-.13.38-.35a.39.39,0,0,0-.46-.33c-.27,0-.42.15-.41.36S293,144.81,293.27,144.82ZM260.93,102c-.23,0-.41.09-.42.28s.18.33.43.34.48-.07.46-.29S261.2,102.06,260.93,102Zm108.28,36.71c.28,0,.46-.11.46-.32s-.17-.3-.41-.3-.46.11-.46.32S369,138.73,369.21,138.75Zm24,8.44c-.23,0-.41.09-.43.27s.17.32.43.33.42-.08.43-.27S393.41,147.22,393.16,147.19Zm-17.09-40.45c.23,0,.4-.11.4-.3s-.22-.31-.48-.3-.41.11-.4.3S375.8,106.74,376.07,106.74Zm-77.74,17.54c-.23,0-.39.13-.38.32s.19.28.43.28.39-.12.38-.31S298.58,124.29,298.33,124.28Zm66.43,15.05c0-.16-.07-.28-.27-.27s-.39.16-.39.36,0,.32.26.31S364.7,139.49,364.76,139.33Zm-22.8,27c0-.2-.18-.25-.39-.23s-.48.06-.45.3a.37.37,0,0,0,.43.28A.42.42,0,0,0,342,166.29Zm12.38-6.73a.37.37,0,0,0-.42-.27c-.24,0-.37.14-.35.33s.16.26.37.25S354.31,159.76,354.34,159.56Zm-47.51,15.15a.35.35,0,0,0-.43-.27c-.24,0-.38.14-.36.33s.18.25.39.24S306.8,174.9,306.83,174.71Zm20.94-6.85a.33.33,0,0,0-.36-.24c-.21,0-.34.1-.35.26s.14.26.35.26A.31.31,0,0,0,327.77,167.86Zm29.32-6a.33.33,0,0,0-.37-.25c-.25,0-.39.11-.38.3s.15.25.36.25S357.07,162,357.09,161.84Zm-90.58,13.9c0-.14-.11-.25-.32-.27s-.41,0-.45.23.1.27.31.29S266.45,175.94,266.51,175.74ZM382,121c0-.18-.17-.28-.41-.28s-.35.09-.37.24.13.3.36.32A.36.36,0,0,0,382,121Zm-97.37,66.17a.3.3,0,0,0-.35-.26c-.25,0-.37.13-.35.31s.17.25.38.23S284.58,187.35,284.58,187.19Zm21.9-16.31c.24-.06.62,0,.68-.22s-.29-.13-.45-.12-.57,0-.62.2S306.32,170.85,306.48,170.88Zm31.6-71.3c-.2,0-.35.08-.35.25s.13.27.34.27.35-.09.35-.25S338.3,99.59,338.08,99.58Zm21.52-3.64c-.19,0-.33.09-.33.26s.16.25.36.26.37-.07.38-.24S359.84,96,359.6,95.94Zm-67.35,59.9c.2,0,.36-.07.36-.24s-.13-.26-.34-.26-.35.08-.36.24S292,155.82,292.25,155.84ZM285,115a.31.31,0,0,0-.35-.25c-.22,0-.34.1-.33.27s.15.21.32.23S284.93,115.2,285,115Zm40.44,69c-.18,0-.32.11-.33.28s.15.26.35.26.35-.1.35-.27S325.63,184.07,325.4,184.05Zm89-14.38c.13,0,.28-.06.31-.2s-.1-.26-.31-.28-.31.05-.34.19S414.14,169.64,414.38,169.67ZM305.24,140.42a.31.31,0,0,0-.38-.23c-.18,0-.28.12-.25.26a.29.29,0,0,0,.34.21C305.14,140.66,305.23,140.57,305.24,140.42Zm33.27,39.47a.3.3,0,0,0-.35-.22c-.19,0-.3.1-.3.24s.13.26.35.26A.28.28,0,0,0,338.51,179.89Zm87.91-76.29c0-.17-.14-.27-.37-.25s-.28.12-.27.26.14.27.36.25S426.42,103.74,426.42,103.6Zm-100-4.95a.3.3,0,0,0-.36-.25c-.19,0-.3.1-.29.24s.15.26.36.25S326.42,98.79,326.42,98.65Zm86.52,4.88a.29.29,0,0,0-.32-.23c-.22,0-.35.11-.31.28s.16.21.34.2S412.94,103.67,412.94,103.53Zm-22.45,76c0-.16-.1-.27-.31-.28s-.3.09-.31.23.09.27.31.28A.29.29,0,0,0,390.49,179.56Zm31-43.45a.32.32,0,0,0-.39-.23c-.19,0-.27.13-.24.27a.29.29,0,0,0,.35.2C421.4,136.34,421.5,136.25,421.5,136.11Zm-84.64,52.66c.17,0,.35-.09.33-.27s-.15-.17-.3-.14-.31.1-.31.24S336.68,188.78,336.86,188.77Zm-1.49-61.34c0-.13-.12-.18-.26-.21s-.29,0-.33.11.11.18.25.2S335.31,127.57,335.37,127.43Zm26.88-9a.55.55,0,0,0-.39-.23c-.16,0-.17.09-.15.19a.34.34,0,0,0,.33.23A.17.17,0,0,0,362.25,118.42Zm-7.62-10.87a.29.29,0,0,0-.29-.23c-.18,0-.3.05-.32.2s.09.23.27.24S354.6,107.72,354.63,107.55Zm-74.86,18.53c0,.14.13.22.31.23s.32,0,.33-.2-.12-.25-.33-.26S279.79,125.94,279.77,126.08Zm54.32-24.47c.19,0,.31-.07.32-.22s-.09-.24-.28-.25-.31.07-.33.22S333.9,101.59,334.09,101.61Zm51,83c0-.15-.13-.23-.32-.23s-.3.09-.31.23.12.23.31.23A.29.29,0,0,0,385.05,184.6Zm-120.86-.73a.26.26,0,0,0-.28-.25c-.19,0-.32.06-.34.2s.1.23.28.25A.29.29,0,0,0,264.19,183.87Zm79.53-69c-.17,0-.29.1-.25.25s.18.2.36.18.32-.09.27-.24S343.91,114.86,343.72,114.86Zm-50.4-19.13a.27.27,0,0,0-.29-.21c-.22,0-.34.09-.33.26s.14.22.32.22A.26.26,0,0,0,293.32,95.73Zm112.07,24.32c0-.14-.16-.2-.33-.19s-.31.08-.3.22.15.21.32.2S405.38,120.2,405.39,120.05Zm-72.85,63.46c0-.14-.08-.24-.27-.25a.24.24,0,0,0-.29.23c0,.11.08.2.23.22S332.51,183.65,332.54,183.51Zm26-74.11c0-.15-.13-.22-.31-.22s-.31.07-.29.23.12.18.27.19S358.54,109.56,358.56,109.4Zm26,40.06c.19,0,.31-.09.29-.24s-.12-.2-.27-.2-.3.09-.29.24S384.37,149.44,384.52,149.46Zm-28.9-47.22c-.18,0-.31.08-.3.23s.14.21.32.21.32-.07.31-.22S355.8,102.26,355.62,102.24Zm39.9,18.64a.3.3,0,0,0,.26.28c.11,0,.2,0,.21-.1s-.08-.28-.29-.31A.15.15,0,0,0,395.52,120.88Zm-66.08,4.93a.14.14,0,0,0-.15-.15.26.26,0,0,0-.3.24c0,.08.06.13.17.12A.3.3,0,0,0,329.44,125.81Zm29.61,59.34a.23.23,0,0,0-.24-.22c-.2,0-.31.08-.31.22s.13.2.28.2S359,185.28,359.05,185.15Zm46.21-93.07c-.16,0-.27,0-.29.17s0,.2.21.22.33,0,.34-.19S405.41,92.1,405.26,92.08Zm-71.85,32.53c-.13,0-.2.11-.17.24a.22.22,0,0,0,.24.15c.18,0,.26-.08.24-.21S333.6,124.61,333.41,124.61Zm-13.59,6.28c0,.15.2.21.39.23s.24,0,.22-.15-.2-.22-.39-.24S319.83,130.77,319.82,130.89ZM336,182.4a.24.24,0,0,0-.29-.18c-.15,0-.22.12-.19.24a.23.23,0,0,0,.25.15C336,182.61,336,182.52,336,182.4Zm91.47-8.26a.25.25,0,0,0-.28.19c0,.13,0,.21.2.22s.27-.06.29-.18S427.68,174.16,427.51,174.14Zm-69.15-41c-.11,0-.22.08-.21.2a.2.2,0,0,0,.19.2c.15,0,.27,0,.28-.16S358.57,133.18,358.36,133.14Zm-36.72-.27c0-.08,0-.14-.14-.15a.17.17,0,0,0-.21.11c0,.1,0,.17.17.17A.18.18,0,0,0,321.64,132.87Zm90-38.27c0-.11-.07-.17-.2-.19s-.23,0-.25.15.06.21.24.21A.19.19,0,0,0,411.67,94.6Zm8.1,16.82c.16,0,.25-.09.23-.21a.23.23,0,0,0-.23-.17c-.16,0-.27.06-.27.19S419.61,111.41,419.77,111.42ZM291,175.49a.18.18,0,0,0-.24-.13c-.12,0-.21.08-.21.18s.11.16.24.14S291,175.6,291,175.49Zm39.17-52c-.16,0-.24.09-.21.21s.14.18.29.16.19-.09.18-.19S330.37,123.53,330.21,123.53Zm64.27,3.34a.25.25,0,0,0,.29.18c.12,0,.21-.08.21-.18s-.09-.2-.25-.21A.22.22,0,0,0,394.48,126.87Zm-120.83.43a.25.25,0,0,0-.25-.19c-.13,0-.23.06-.24.16s.07.2.24.21A.23.23,0,0,0,273.65,127.3Zm131.43,25.76a.19.19,0,0,0-.18-.24c-.15,0-.28,0-.32.12s0,.25.19.28A.26.26,0,0,0,405.08,153.06ZM287.33,124.44c-.12,0-.25,0-.26.12s.12.17.25.19.24,0,.26-.12S287.47,124.46,287.33,124.44Zm78.68-6.8c-.11,0-.11.09-.09.16a.18.18,0,0,0,.19.18c.16,0,.18-.09.14-.19A.25.25,0,0,0,366,117.64Zm-73,45.91c0-.13-.12-.19-.28-.18s-.22.06-.22.16.08.2.24.21S293,163.67,293,163.55Zm122.18-7.79c-.05-.13-.08-.28-.31-.28s-.14.11-.13.2a.24.24,0,0,0,.25.26A.16.16,0,0,0,415.22,155.76ZM303.79,186.35a.23.23,0,0,0-.25-.16c-.13,0-.21.07-.21.17s.09.2.25.2A.21.21,0,0,0,303.79,186.35Zm46.5-70.21c0-.08-.06-.12-.16-.13s-.19,0-.2.12.06.13.16.13A.19.19,0,0,0,350.29,116.14Zm47.2,43.19a.24.24,0,0,0-.28-.17c-.16,0-.23.11-.2.23a.23.23,0,0,0,.24.15C397.42,159.53,397.49,159.46,397.49,159.33Zm8.84,29.14c.11,0,.2-.08.18-.19a.2.2,0,0,0-.24-.14c-.13,0-.21.08-.19.18A.23.23,0,0,0,406.33,188.47Zm4.81-7.85a.18.18,0,0,0-.2-.17.15.15,0,0,0-.16.19c0,.11,0,.23.22.19S411.14,180.71,411.14,180.62Zm-146.42-5c.1,0,.19,0,.2-.12s-.07-.17-.19-.19-.23,0-.22.13S264.59,175.62,264.72,175.64Zm17.17-52.79c0-.09-.08-.12-.18-.12s-.18,0-.22.09,0,.13.13.14S281.84,123,281.89,122.85ZM334,119.52c.14,0,.21-.06.22-.16s0-.14-.13-.16-.23,0-.25.13S333.85,119.5,334,119.52Zm-14.1-2.91c.12,0,.24-.06.25-.19s-.08-.18-.21-.19-.26,0-.27.19S319.72,116.57,319.88,116.61Zm6.43,10.27c0-.1-.08-.17-.2-.18a.19.19,0,0,0-.24.14c0,.1.07.17.19.18A.2.2,0,0,0,326.31,126.88Zm25.24,1.28a.2.2,0,0,0-.25-.13c-.13,0-.19.09-.16.19a.18.18,0,0,0,.21.11C351.48,128.33,351.55,128.27,351.55,128.16Zm40.93-.07c0-.1-.11-.16-.26-.16s-.21.07-.21.17.11.18.27.18A.19.19,0,0,0,392.48,128.09Zm-82.85,59.6a.2.2,0,0,0-.22-.16c-.16,0-.24.08-.21.2s.11.16.25.14S309.63,187.79,309.63,187.69Zm79.86-52.49q0-.15-.21-.18c-.14,0-.23,0-.25.14s.07.21.24.21A.2.2,0,0,0,389.49,135.2Zm-28.58-2.88c-.06,0-.1-.09-.14-.09a.18.18,0,0,0-.15.06c0,.08,0,.13.13.12S360.84,132.36,360.91,132.32Zm31.15-32.59a.24.24,0,0,0-.28-.13c-.13,0-.2.09-.17.18s.12.19.28.16A.17.17,0,0,0,392.06,99.73ZM346.68,162c-.13,0-.18.11-.15.2a.19.19,0,0,0,.25.12.14.14,0,0,0,.13-.16C346.89,162,346.82,162,346.68,162ZM334.14,125c-.13,0-.19.08-.16.18a.19.19,0,0,0,.24.12.14.14,0,0,0,.14-.15C334.35,125.08,334.28,125,334.14,125Zm73,10.17c0,.11.11.18.27.16s.2-.08.19-.19a.22.22,0,0,0-.27-.17A.19.19,0,0,0,407.11,135.2Zm-117.36,24c.14,0,.21-.06.2-.17a.19.19,0,0,0-.21-.17c-.14,0-.21.07-.2.18S289.62,159.23,289.75,159.23ZM399.5,180.12c0-.1-.07-.17-.19-.19s-.23,0-.24.14.06.17.18.19A.2.2,0,0,0,399.5,180.12Zm1.15-35.86a.24.24,0,0,0-.29-.15c-.13,0-.19.1-.17.19s.13.18.29.15S400.66,144.36,400.65,144.26Zm-94.37-22a.2.2,0,0,0-.22-.16c-.13,0-.21.06-.2.16a.2.2,0,0,0,.22.17C306.21,122.46,306.28,122.4,306.28,122.3Zm95.16.76a.2.2,0,0,0-.22.15c0,.11.07.17.2.17s.21-.06.22-.16S401.57,123.07,401.44,123.06Zm-48.18,31.25c0-.09-.05-.12-.13-.11a.16.16,0,0,0-.09.07s0,.11.09.1A.26.26,0,0,0,353.26,154.31ZM340,104.17c0,.1.07.17.2.18s.25-.06.23-.19a.2.2,0,0,0-.22-.16C340,104,340,104.07,340,104.17Zm-81.37,8.06a.19.19,0,0,0-.18-.19c-.14,0-.22,0-.23.14s.06.17.18.19A.19.19,0,0,0,258.59,112.23Zm138.93,74.31c0,.1.07.16.19.18s.22-.05.23-.14-.05-.21-.22-.21A.18.18,0,0,0,397.52,186.54Zm-68.18-32.91a.44.44,0,0,0,.28-.27c0-.07-.07-.14-.16-.11a.39.39,0,0,0-.29.26C329.15,153.59,329.22,153.63,329.34,153.63Zm45.43,21.9c0-.07,0-.13-.14-.15a.17.17,0,0,0-.19.11c0,.1,0,.17.16.17A.15.15,0,0,0,374.77,175.53Zm-50.26,9.8c.13,0,.21-.08.19-.19a.25.25,0,0,0-.24-.16c-.13,0-.22.06-.21.16S324.36,185.32,324.51,185.33Zm75.25-84.07a.23.23,0,0,0,.23-.16c0-.07,0-.16-.08-.18a.21.21,0,0,0-.28.17C399.62,101.17,399.65,101.23,399.76,101.26Zm-44.08,14.26c-.07,0-.18,0-.14.07a.72.72,0,0,0,.28.12.34.34,0,0,0,.17,0C356,115.54,355.8,115.55,355.68,115.52ZM339.94,125c-.06,0-.15.07-.15.1s.1.11.19.1.21,0,.18-.1S340,125.06,339.94,125Zm-55.33-23.81q0-.16-.21-.18c-.17,0-.25.07-.24.2s.1.15.24.14A.19.19,0,0,0,284.61,101.22Zm29.58,62s-.08-.07-.14-.07-.17,0-.15.12a.19.19,0,0,0,.13.1C314.14,163.4,314.19,163.35,314.19,163.24ZM358,116.89s-.07-.08-.12-.08-.17,0-.16.11.06.09.11.1A.14.14,0,0,0,358,116.89Zm8.1,37.55c.13,0,.15-.11.11-.18a.2.2,0,0,0-.15-.06c-.11,0-.14.09-.1.16S366.05,154.42,366.09,154.44Zm1.05-51.1c0-.1-.05-.17-.18-.19a.18.18,0,0,0-.23.15c0,.1.06.17.19.19A.18.18,0,0,0,367.14,103.34Zm-53.31,10.39c0-.09-.05-.16-.19-.17s-.18,0-.19.11.06.17.19.18A.16.16,0,0,0,313.83,113.73Zm-47.62,38.39A.2.2,0,0,0,266,152c-.13,0-.22.06-.21.16s.09.16.23.16S266.21,152.23,266.21,152.12Zm59.27-38.24a.2.2,0,0,0-.23-.14c-.13,0-.19.09-.17.18s.1.16.23.15A.17.17,0,0,0,325.48,113.88ZM302.33,95.7c.11,0,.19,0,.21-.1s0-.17-.17-.19a.16.16,0,0,0-.2.1C302.14,95.61,302.2,95.68,302.33,95.7Zm111.89,26.86c.13,0,.21-.07.19-.18s-.13-.14-.26-.13-.16.07-.15.15S414.08,122.56,414.22,122.56ZM282.81,161.23c.18,0,.26-.06.26-.16s-.07-.19-.23-.2-.21.06-.22.16S282.69,161.22,282.81,161.23Zm106.45-32.79q0-.12-.15-.15c-.1,0-.18,0-.19.09s.05.13.14.15A.15.15,0,0,0,389.26,128.44ZM377,116.82c0-.11-.08-.18-.21-.17a.26.26,0,0,0-.19.12c0,.09,0,.18.17.2S377,116.92,377,116.82Zm-10.48.48c-.1,0-.17,0-.17.13s.06.16.2.16a.15.15,0,0,0,.17-.13C366.7,117.36,366.62,117.3,366.49,117.3Zm-106.63,16c0,.1.09.16.23.15s.16-.07.15-.15-.09-.17-.23-.16A.16.16,0,0,0,259.86,133.33ZM417.14,90.45c-.13,0-.18.1-.16.19s.11.15.24.13a.14.14,0,0,0,.14-.16C417.35,90.52,417.28,90.46,417.14,90.45ZM299.82,184.54c.2,0,.25-.07.25-.15a.16.16,0,0,0-.17-.13c-.13,0-.2.07-.19.17A.16.16,0,0,0,299.82,184.54Zm107.68-82.2c0-.11-.07-.17-.2-.17a.14.14,0,0,0-.17.13c0,.1.06.16.19.17A.19.19,0,0,0,407.5,102.34ZM299.68,96.09c-.11,0-.14.09-.11.16a.19.19,0,0,0,.14.09.12.12,0,0,0,.15-.13C299.85,96.13,299.78,96.09,299.68,96.09Zm-7.58-5.71c-.13,0-.21.05-.22.15s.08.16.2.17.22,0,.22-.15S292.23,90.4,292.1,90.38Zm26.34,76.11a.12.12,0,0,0-.15-.14.23.23,0,0,0-.16.08c0,.08,0,.15.12.16A.15.15,0,0,0,318.44,166.49Zm-38.75-1.21a.17.17,0,0,0-.18-.13c-.1,0-.18,0-.19.12s.08.15.21.14S279.69,165.35,279.69,165.28Zm130.05-25a.17.17,0,0,0,.2-.11c0-.1-.06-.16-.19-.17a.16.16,0,0,0-.19.11C409.53,140.22,409.61,140.27,409.74,140.29Zm-87.91-9.42c-.14,0-.22.06-.22.16s.09.15.22.16.21-.07.21-.16S322,130.88,321.83,130.87Zm-29.72,51.55c0-.1-.07-.17-.2-.18a.17.17,0,0,0-.19.12c0,.09,0,.17.16.19A.17.17,0,0,0,292.11,182.42Zm-8.5-80.28a.2.2,0,0,0-.22-.17.18.18,0,0,0-.2.13c0,.1.05.17.18.19A.2.2,0,0,0,283.61,102.14Zm141.23-3.28c-.13,0-.21,0-.22.14s.05.18.18.19a.17.17,0,0,0,.22-.14C425,99,425,98.88,424.84,98.86ZM311.92,98q0,.12.15.15a.16.16,0,0,0,.2-.1c0-.08,0-.13-.15-.14A.16.16,0,0,0,311.92,98Zm-35.85,30.74a.19.19,0,0,0-.23-.11c-.09,0-.15.08-.12.16a.17.17,0,0,0,.23.12C276.05,128.93,276.09,128.87,276.07,128.78Zm83.35,19.27a.22.22,0,0,0-.23-.17s-.13.06-.12.09.09.16.22.17A.1.1,0,0,0,359.42,148.05ZM336.61,90.44c0-.1-.08-.16-.21-.15s-.16.06-.16.13.09.16.21.15A.15.15,0,0,0,336.61,90.44ZM391,93.5c0-.14-.1-.19-.2-.17s-.11.07-.11.1.08.13.18.12A.34.34,0,0,0,391,93.5Zm-14.29,44.74c0-.1-.09-.15-.22-.15s-.16.07-.16.14.08.16.22.15A.15.15,0,0,0,376.69,138.24Zm-60.32,4.49c.12,0,.17-.07.16-.16a.16.16,0,0,0-.17-.13c-.14,0-.21.07-.18.18A.18.18,0,0,0,316.37,142.73Zm9.09-14.68a.38.38,0,0,0,0-.13s-.1,0-.1,0a.75.75,0,0,0-.07.12ZM375,157.68a.17.17,0,0,0-.18-.13c-.11,0-.16.06-.15.14a.15.15,0,0,0,.18.12C374.94,157.81,375,157.76,375,157.68Zm-57.63-20.91c-.11,0-.17,0-.17.13s.06.14.17.14.17,0,.16-.13S317.46,136.78,317.36,136.77Zm96.54,29.57c.11,0,.19,0,.2-.12s-.05-.17-.18-.19-.19.05-.2.12S413.78,166.32,413.9,166.34Zm-72.07,8.9c.14,0,.22-.05.22-.16s-.09-.16-.22-.16a.17.17,0,0,0-.18.13C341.64,175.15,341.7,175.22,341.83,175.24Zm74.93-49.17a.15.15,0,0,0-.14-.17c-.14,0-.2.06-.19.16s.07.12.17.12A.14.14,0,0,0,416.76,126.07Zm-58-27.82c.11,0,.17,0,.17-.13a.15.15,0,0,0-.17-.14c-.13,0-.22,0-.2.16A.19.19,0,0,0,358.79,98.25Zm51.4,69.95a.17.17,0,0,0-.19-.11c-.11,0-.15.07-.13.14s.08.12.18.11S410.2,168.28,410.19,168.2ZM389.06,93.27a.12.12,0,0,0-.13-.14c-.1,0-.17,0-.17.12s.06.09.11.11A.13.13,0,0,0,389.06,93.27Zm-94.93,21.79c-.1,0-.17,0-.18.11s.05.14.15.15.18,0,.18-.12S294.24,115.07,294.13,115.06Zm10.94,61.55c.11,0,.16-.06.16-.14a.14.14,0,0,0-.16-.14c-.14,0-.22,0-.19.16S305,176.61,305.07,176.61Zm42.14-9.13c-.1,0-.17.06-.16.13s.07.13.17.14.17-.06.17-.13S347.31,167.5,347.21,167.48Zm-20.7-62.36c-.1,0-.17.07-.16.14s.06.14.17.15.21-.06.19-.17S326.61,105.13,326.51,105.12Zm47.13,61.35c-.11,0-.15.08-.11.15a.21.21,0,0,0,.14.1c.11,0,.17-.05.16-.13S373.75,166.47,373.64,166.47Zm-55.92-28.79a1.1,1.1,0,0,0-.09.21.08.08,0,0,0,.05.08c.05,0,.13,0,.15,0S317.8,137.85,317.72,137.68Zm97.93-24.2q0-.12-.09-.18a.17.17,0,0,0-.23,0c-.06.09,0,.18.1.22A.18.18,0,0,0,415.65,113.48ZM321.86,136c0-.08,0-.13-.14-.15s-.18,0-.19.1,0,.14.13.16A.17.17,0,0,0,321.86,136Zm-67.43-6.28a.16.16,0,0,0-.16-.14c-.1,0-.16.06-.15.14a.18.18,0,0,0,.12.1A.14.14,0,0,0,254.43,129.74Zm149.44-23.61a.17.17,0,0,0-.19-.13.19.19,0,0,0-.13.1c0,.07,0,.14.13.15A.17.17,0,0,0,403.87,106.13Zm-67.27,20.6a.58.58,0,0,0,.11,0c0-.06,0-.11-.08-.12a.22.22,0,0,0-.11,0S336.52,126.71,336.6,126.73Zm-78.05,17.11c-.12,0-.17.09-.14.16a.17.17,0,0,0,.13.1c.11,0,.17,0,.17-.13S258.65,143.84,258.55,143.84Zm102.51-18.25c0-.08,0-.1-.11-.09a.09.09,0,0,0-.07.06s0,.07.05.08S361.05,125.63,361.06,125.59ZM330.3,150.65c-.11,0-.19.06-.18.14s.07.13.17.13.18,0,.18-.13A.17.17,0,0,0,330.3,150.65Zm-28.13-37.93c0-.08,0-.14-.09-.17a.19.19,0,0,0-.23,0c-.06.09,0,.17.11.2A.17.17,0,0,0,302.17,112.72Zm94.56,34.39a.15.15,0,0,0-.17-.11.16.16,0,0,0-.13.09c0,.07,0,.13.12.14A.16.16,0,0,0,396.73,147.11ZM328.4,169.42c0-.08-.09-.11-.19-.11s-.15.07-.14.14.09.12.18.12A.15.15,0,0,0,328.4,169.42Zm-25.61-8.53a.18.18,0,0,0-.17-.13c-.1,0-.18,0-.18.11s.05.16.19.16A.16.16,0,0,0,302.79,160.89Zm5.51-69.72a.15.15,0,0,0,.15.15c.14,0,.2,0,.19-.15s-.07-.12-.17-.12S308.31,91.1,308.3,91.17Zm-4,34.39a.15.15,0,0,0-.19-.11.2.2,0,0,0-.12.1c0,.08.05.14.15.14A.15.15,0,0,0,304.33,125.56Zm84.84,50.86c-.11,0-.18.05-.18.12s.08.13.18.12a.16.16,0,0,0,.13-.09C389.32,176.5,389.27,176.44,389.17,176.42Zm-65,8.31c-.06,0-.11-.1-.15-.1a.18.18,0,0,0-.14.09c0,.08,0,.14.15.13S324.14,184.78,324.2,184.73ZM298,130.15c.1,0,.15-.07.12-.14a.17.17,0,0,0-.13-.1c-.1,0-.17,0-.16.11S297.88,130.14,298,130.15Zm124.1-31.47s-.07-.06-.1-.06-.12,0-.1.11a.12.12,0,0,0,.1.06C422.06,98.79,422.11,98.75,422.09,98.68Zm-103.37,1.95c.1,0,.15-.07.13-.15a.15.15,0,0,0-.19-.11c-.1,0-.15.07-.13.15S318.62,100.63,318.72,100.63Zm107,12.67c0-.11,0-.17-.15-.16a.16.16,0,0,0-.13.09c0,.08,0,.14.15.14S425.65,113.32,425.68,113.3Zm-80.31,5.46s-.07,0-.07.08,0,.07.07.07.12,0,.1-.09S345.41,118.78,345.37,118.76Zm-65.72,34.7s-.1.06-.11.1,0,.15.14.15a.23.23,0,0,0,.14-.09C279.84,153.54,279.78,153.49,279.65,153.46Zm124.29-8.23a.14.14,0,0,0-.17-.13.19.19,0,0,0-.14.1c0,.07,0,.14.13.15S403.93,145.31,403.94,145.23ZM313.74,141v-.09l-.1,0s0,.05,0,.05Zm22.71,25.38s-.05-.08-.08-.09a.1.1,0,0,0-.15.06s0,.08.06.08Zm1.49-54.67c-.11,0-.17.06-.17.13a.15.15,0,0,0,.17.14.13.13,0,0,0,.16-.13C338.1,111.74,338,111.69,337.94,111.67Zm15.43,11.53s-.06.06-.07.11,0,.13.14.14a.18.18,0,0,0,.13-.09C353.6,123.28,353.54,123.23,353.37,123.2Zm28.47,20a.16.16,0,0,0-.2-.1.19.19,0,0,0-.13.1c0,.08.06.13.16.14S381.84,143.26,381.84,143.17Zm-18,.9c0-.09-.07-.14-.18-.13a.28.28,0,0,0-.14.09c0,.08,0,.15.14.16S363.83,144.15,363.84,144.07ZM412,95.13c-.05.06-.12.1-.12.13a.19.19,0,0,0,.12.11c.11,0,.18,0,.15-.13S412.05,95.18,412,95.13Zm-5.42,92.22s-.05,0-.08,0-.13,0-.12.09a.13.13,0,0,0,.09.07C406.54,187.47,406.56,187.42,406.56,187.35ZM398.1,146.4a.16.16,0,0,0-.19-.1.13.13,0,0,0-.13.15.16.16,0,0,0,.19.1A.13.13,0,0,0,398.1,146.4ZM309.68,99.51c.09,0,.09-.08.06-.12s-.07,0-.11,0a.5.5,0,0,0,0,.13S309.65,99.5,309.68,99.51ZM318.63,135l-.07-.06s-.05,0-.06.07l0,0Zm82.6,14.9a.16.16,0,0,0-.19-.11c-.05,0-.12.07-.12.11s.05.14.15.14S401.23,150,401.23,149.89ZM422.56,98c-.07,0-.12-.09-.17-.09a.18.18,0,0,0-.13.09c0,.07.06.13.16.11S422.5,98.06,422.56,98Zm-67.17,10.33c0-.08,0-.14-.1-.17a.23.23,0,0,0-.16,0,.11.11,0,0,0,0,.18A.17.17,0,0,0,355.39,108.34Zm-50.72,13.92c0-.08,0-.14-.09-.16a.22.22,0,0,0-.16,0c-.06.06,0,.13,0,.17A.16.16,0,0,0,304.67,122.26ZM338,182.91a.15.15,0,0,0-.18-.14c-.05,0-.12.07-.12.1s.07.13.17.12S338,182.94,338,182.91ZM321.6,152.12c-.13-.09-.17-.14-.22-.15s-.13.05-.13.09,0,.13.14.12A.76.76,0,0,0,321.6,152.12Zm-59.25-16.46c-.07,0-.12-.09-.17-.09s-.08.06-.13.09.09.09.13.09S262.28,135.7,262.35,135.66Zm95-41.71a.41.41,0,0,0-.13-.08c-.1,0-.16,0-.14.13a.19.19,0,0,0,.12.09C357.33,94.1,357.39,94.05,357.38,94ZM299,143.23c.06-.06.12-.1.12-.14s-.08-.07-.12-.11-.11.07-.12.11S299,143.17,299,143.23Zm91.49.51c0,.06-.09.1-.08.14a.16.16,0,0,0,.12.09c.11,0,.15-.06.11-.13S390.6,143.78,390.53,143.74ZM364,98c.06-.06.13-.09.12-.13s-.07-.06-.11-.1-.12.07-.12.1S363.92,97.94,364,98Zm-7.78,51.29-.09,0s0,.05,0,.08l.05,0A.46.46,0,0,0,356.19,149.29Zm-6.09,5.76a.49.49,0,0,0-.16-.05s-.06.07-.05.07l.13.07Zm-64.79,3.14c.1,0,.15-.07.12-.14a.22.22,0,0,0-.13-.1c-.1,0-.17,0-.17.12S285.2,158.18,285.31,158.19Zm67.58-51.09s.09-.07.1-.11-.05-.13-.15-.12a.16.16,0,0,0-.13.09C352.69,107,352.75,107.08,352.89,107.1Zm-43.78,54.42c-.06,0-.11-.09-.15-.09s-.12,0-.12.09,0,.13.14.11S309.06,161.56,309.11,161.52ZM344,163.28l-.11-.07a.87.87,0,0,0-.09.11s.07.06.08.05A.54.54,0,0,0,344,163.28Zm17.25,2.81c0-.07,0-.13-.08-.15a.18.18,0,0,0-.16,0c-.07.06,0,.13.05.16A.81.81,0,0,0,361.2,166.09Zm-98.61,6.8c0,.05-.11.1-.11.13a.19.19,0,0,0,.12.11c.11,0,.16,0,.13-.13S262.65,172.94,262.59,172.89Zm82.88-73.61c0-.1-.05-.16-.15-.15a.16.16,0,0,0-.12.09c0,.07.05.13.14.13S345.44,99.3,345.47,99.28Zm20.6,8.94s.09-.06.1-.1-.05-.14-.15-.13a.16.16,0,0,0-.13.09C365.87,108.16,365.94,108.2,366.07,108.22Zm-46.23,67.2a.15.15,0,0,0-.17-.11.17.17,0,0,0-.13.08c0,.08,0,.14.13.15S319.83,175.5,319.84,175.42Zm1.24-75.06s-.06.06-.05.08.05.07.08.06.12,0,.08-.09S321.12,100.38,321.08,100.36Zm45.16,75.28c-.12-.09-.17-.14-.21-.14a.15.15,0,0,0-.14.08c0,.07,0,.13.15.12A.63.63,0,0,0,366.24,175.64Zm-65.45,2c0-.08-.08-.12-.18-.1s-.11.06-.11.1,0,.13.14.13S300.79,177.75,300.79,177.67Zm-10,2.88a.14.14,0,0,0-.16-.15c-.05,0-.13.06-.14.1s.06.13.16.13S290.74,180.58,290.78,180.55ZM392.57,94.42c-.05,0-.12.09-.11.13s.07.07.11.1.11-.07.12-.1S392.62,94.48,392.57,94.42ZM382,181.1s-.1.05-.11.08,0,.14.12.15a.18.18,0,0,0,.14-.08C382.22,181.18,382.17,181.12,382,181.1ZM425.25,183c-.12-.08-.17-.14-.22-.14a.2.2,0,0,0-.13.08c0,.08,0,.13.15.13A.69.69,0,0,0,425.25,183Zm-6.18,1.15c.06,0,.13-.1.13-.13s-.08-.07-.13-.11-.11.07-.12.11S419,184.1,419.07,184.16Zm-151.51,2.29c.16,0,.21,0,.2-.1s-.06-.11-.11-.11-.17,0-.15.12A.18.18,0,0,0,267.56,186.45Zm66.2,3.71s.09-.06.09-.1-.06-.14-.16-.12a.15.15,0,0,0-.12.1C333.56,190.12,333.63,190.16,333.76,190.16Zm14.32-79.09a.16.16,0,0,0-.2-.12.14.14,0,0,0-.09.11c0,.08.07.13.18.1S348.05,111.1,348.08,111.07Zm55.53.17c0,.05-.1.1-.09.13a.19.19,0,0,0,.13.1c.11,0,.16-.06.12-.14S403.68,111.28,403.61,111.24Zm-60,6-.09.08a.46.46,0,0,0,.14.07s.07,0,.07-.06A.54.54,0,0,0,343.57,117.19Zm44.84-13.25s-.08-.07-.14-.08-.17,0-.14.13a.15.15,0,0,0,.12.1C388.36,104.1,388.41,104,388.41,103.94Zm-10.9,19c-.06,0-.11-.1-.16-.1s-.11.06-.11.1.07.09.11.09S377.45,123,377.51,123Zm40,3.22c0-.09-.07-.15-.17-.14s-.12.06-.12.1.06.14.16.13S417.48,126.22,417.52,126.19Zm-100,7.8c-.11,0-.17,0-.17.07a.15.15,0,0,0,.09.12c.1,0,.17,0,.16-.09S317.49,134,317.47,134Zm6,2.33s.09,0,.1,0,0-.05-.05-.08-.09,0-.1.05S323.43,136.29,323.45,136.32Zm-65.45.26c-.06,0-.12-.09-.16-.09a.18.18,0,0,0-.13.09c0,.08.05.14.16.12S258,136.63,258,136.58Zm113,.52s-.09.07-.09.11.08.13.18.11.11-.07.11-.1S371.12,137.1,371,137.1Zm30.49-35.65c-.05.06-.12.1-.11.13s.07.08.11.11.12-.06.12-.1S401.54,101.51,401.48,101.45Zm-105.06.43c0-.06,0-.1-.05-.12a.27.27,0,0,0-.12,0,.45.45,0,0,0,.06.12ZM355.8,155a.55.55,0,0,0-.11-.1.31.31,0,0,0-.1.05s0,.11.06.13S355.77,155.11,355.8,155Zm-98.51,18.82-.08-.06s-.09,0-.09.06.06,0,.08.08Zm5.64-83.64c-.05.06-.12.1-.11.13s.07.07.11.1.12-.06.12-.1S263,90.28,262.93,90.22Zm56.2,28.16s0-.07,0-.09-.12-.06-.15,0a.1.1,0,0,0,0,.09S319.08,118.38,319.13,118.38Zm-25.61,32.5c0,.06-.09.11-.08.14s.09,0,.14.08.09-.08.08-.11S293.58,150.93,293.52,150.88Zm-5.59,21.92s-.08,0-.08.07a.09.09,0,0,0,.07.06c.07,0,.12,0,.1-.07S288,172.82,287.93,172.8Zm1.67-80.4s-.08,0-.08.07a.11.11,0,0,0,.07.08c.08,0,.13,0,.11-.09S289.64,92.43,289.6,92.4Zm26.56,48.68-.05-.08s-.1,0-.1,0,0,.05,0,.08ZM336,103.57s.07,0,.09,0,0,0,.06-.07-.07,0-.1,0S336,103.54,336,103.57Zm43,55c0,.06-.09.11-.08.14a.17.17,0,0,0,.13.1c.11,0,.17-.06.12-.14S379.05,158.64,379,158.6Zm0,3.32c-.07,0-.12-.09-.17-.09s-.08,0-.12.08.08.09.13.09S378.9,162,379,161.92Zm-8.84,4.9s-.08,0-.09.05a.1.1,0,0,0,.06.08c.07,0,.12,0,.11-.08S370.16,166.84,370.13,166.82ZM256.78,190.28s0-.06-.07-.07a.13.13,0,0,0-.11,0s0,.1.08.1S256.74,190.3,256.78,190.28Zm113.69-59.59s-.05.05-.05.07.06,0,.09.05.06-.06.05-.08S370.5,130.7,370.47,130.69ZM271.2,189l-.16-.05s-.05.05-.07.07l.14.07ZM401.89,94.47a.56.56,0,0,0-.15-.1s-.09,0-.09.06a.44.44,0,0,0,.08.11ZM297,163.75c-.06.05-.13.09-.12.12s.08.08.12.09.12-.06.12-.09S297.08,163.8,297,163.75Zm37-51.08s0-.07-.06-.08-.12,0-.11.07.05.06.08.06S334,112.69,334,112.67Zm68.35,35.09c-.06,0-.09-.1-.14-.11a.09.09,0,0,0-.13.07.15.15,0,0,0,.09.1S402.3,147.79,402.38,147.76Zm-15.79-34.21c-.07,0-.11-.09-.16-.09s-.12.06-.11.09.07.09.11.09S386.52,113.59,386.59,113.55ZM388.42,133l.08-.07a.71.71,0,0,0-.15-.08s-.06.05-.06.08S388.34,133,388.42,133Zm-30.77,15.05c-.08-.05-.13-.1-.17-.1s-.13.06-.12.09.07.09.12.1S357.58,148.12,357.65,148.08ZM295,143.39s.07,0,.1,0,0-.05.06-.08-.07,0-.11,0S295,143.36,295,143.39ZM259.51,95.63c-.05,0-.08-.11-.12-.12s-.17,0-.17.09.07.09.12.1A.68.68,0,0,0,259.51,95.63Zm153,31.63-.11-.05a.32.32,0,0,0,0,.09l0,0Zm9.86-31.12s.07,0,.07-.08-.05-.09-.13-.06a.09.09,0,0,0,0,.09S422.38,96.12,422.41,96.14Zm-25.48,35.48-.06-.08s-.09,0-.09.06,0,.05.06.07Zm-100.61-2.09c-.05.05-.12.09-.12.12a.16.16,0,0,0,.12.09c.05,0,.12-.06.12-.09S296.38,129.58,296.32,129.53Zm-37,33.42-.09-.06s-.06.05,0,.08,0,0,.08.05Zm129.79-7.37s-.06.06-.06.08a.1.1,0,0,0,.15.05.12.12,0,0,0,0-.1S389.19,155.59,389.15,155.58Zm-38.95-2.43-.09-.05s-.05.05-.05.08.05,0,.08,0Zm10-21.68s0-.07-.05-.08-.1,0-.11,0,0,.1.06.1S360.15,131.48,360.18,131.47ZM314.37,108.4a.21.21,0,0,0-.06.1c0,.07,0,.13.14.13a.2.2,0,0,0,.13-.08C314.61,108.47,314.55,108.42,314.37,108.4Zm-19.91,73.13c0-.05,0-.09,0-.11a.1.1,0,0,0-.16,0s0,.08,0,.09Zm3.42-6.81c.11,0,.15-.05.14-.1s0-.08-.07-.07-.13,0-.14.06S297.86,174.69,297.88,174.72Zm68.42-35.48a.63.63,0,0,0-.12-.1l-.1.05a.15.15,0,0,0,.06.13A.12.12,0,0,0,366.3,139.24Zm36.93-4.12c-.07,0-.12-.09-.17-.08s-.11.06-.1.09a.16.16,0,0,0,.12.09S403.17,135.16,403.23,135.12Zm-81.53-1v-.08h-.06v.08Zm-28.24-17.55c-.07,0-.12-.09-.17-.09s-.12.06-.12.09a.18.18,0,0,0,.13.09S293.39,116.66,293.46,116.62Zm45.81,8h-.11v0h.11Zm75.34,40.74c0-.07-.06-.09-.14-.08s-.07.05-.07.07a.09.09,0,0,0,.13.08S414.58,165.42,414.61,165.4ZM313.53,127.81c-.11,0-.15,0-.15.09a.16.16,0,0,0,.08.08c.07,0,.15,0,.15-.07S313.55,127.83,313.53,127.81Zm2.17-26.07c-.07,0-.12-.1-.17-.1a.18.18,0,0,0-.13.09c0,.07.05.14.16.12S315.64,101.79,315.7,101.74Zm52.23,48.86s.07,0,.06-.07-.05-.06-.08-.06-.11,0-.08.1S367.9,150.59,367.93,150.6ZM320.24,89.84s.07,0,.1,0,0,0,.05-.07-.07,0-.1,0S320.26,89.81,320.24,89.84Zm53,83.51.07,0-.06-.08-.06,0A.35.35,0,0,1,373.23,173.35Zm-56.81-31.92,0,0h.06a.06.06,0,0,0,0,0Zm-46,46.78c-.11,0-.16,0-.15.1a.11.11,0,0,0,.07.08c.07,0,.15,0,.15-.07S270.44,188.24,270.42,188.21Zm7.86-51.37s0-.07,0-.09a.11.11,0,0,0-.11,0c-.07,0-.07.09,0,.12A.27.27,0,0,0,278.28,136.84Zm89.59-22.76s0-.07-.05-.07-.07,0-.11,0,0,.06.06.07A.21.21,0,0,0,367.87,114.08Zm-57.3-18.71s-.07-.05-.1,0-.05,0-.08.06l.14.06Zm36.74,71.14s.08,0,.09,0,0-.05,0-.07-.09,0-.09,0S347.29,166.48,347.31,166.51Zm-29,17.42-.06.07.1,0s0,0,0,0ZM292.08,96.54s0,.07.06.08a.18.18,0,0,0,.11,0c0-.06,0-.11-.07-.11S292.11,96.52,292.08,96.54Zm25.29,38.9,0,0,0,0,0,0Zm28.37-20-.05,0s0,0,0,0l0,0Zm-11.54,50,.1,0s0-.06-.06-.07a.15.15,0,0,0-.09,0S334.18,165.5,334.2,165.52ZM322.78,182s0-.06,0-.08,0,0-.06,0a.25.25,0,0,0,0,.07Zm57.54-84-.09-.05s-.06.05-.06.07.05,0,.08.06Zm-63.75,29.74-.1,0s-.05.05-.05.07.06,0,.09,0Zm8.73-22.58-.05.07.1,0s0,0,0,0Zm21.75,12.2s-.05,0-.09-.05,0,0,0,0l0,.09Zm-62.27-11.35.11,0s.05-.06,0-.07-.06,0-.1,0Zm105.14,49.37s-.09.07-.08.09.06.09.14.07.08-.06.07-.07Zm31.29-15.24a.09.09,0,0,0-.13-.08s-.08.07-.07.08a.74.74,0,0,0,.13.08Zm3.67-8.67s0-.07,0-.08-.07,0-.11,0,0,.08,0,.09S424.84,131.51,424.88,131.51ZM402.18,107a.31.31,0,0,0-.1,0l-.05,0,.06.08ZM300.89,98.69l-.06,0,.05.07.05,0S300.9,98.72,300.89,98.69Zm21.52,19.1.06-.07s-.06,0-.09,0,0,0-.07.07Zm77.73,46.55-.08-.06a.3.3,0,0,0,0,.08l0,0Zm2.43-14.47s.09,0,.1-.05a.08.08,0,0,0,0-.09c-.08,0-.13,0-.14.06S402.54,149.84,402.57,149.87Zm-33.62-17-.08.05s0,0,0,0l.11,0A.56.56,0,0,0,369,132.85Zm8.63-8.17s-.06-.06-.1-.06-.06,0-.08.06.05.06.08.06S377.54,124.7,377.58,124.68ZM394,158.26q-.16,0-.15.09a.11.11,0,0,0,.07.08c.07,0,.15,0,.15-.06S394,158.29,394,158.26Zm11.29-42.06c.07,0,.08,0,0-.06s0,0-.06,0Zm-27.16,21.43.1,0s0,0,0,0l-.06-.07Zm41.4,11,0,0-.07,0,0,0ZM363.6,114.84l0,0s0,0,.05,0,0,0,0,0Zm-2.41,69.44.05-.08-.05,0-.08.05Zm-54.4-34v0l.08,0s0,0,0,0S306.8,150.29,306.79,150.29ZM260.16,112.8s0-.06-.05-.07-.09,0-.1,0,0,.09.06.1S260.13,112.82,260.16,112.8Zm144,73.65.06,0v0l-.1,0ZM288.48,94l0,0v0Zm-2.17,17,0,0,0,0Zm83.77,78s0,.05,0,.08,0,0,.05,0,0,0,.08-.06Zm-12-36.5.05,0,0,0s0,0-.06,0Zm65.2-23.63V129l.08,0,0,0ZM277.12,96l0,0,0,0s0,0,.05,0S277.11,96,277.12,96Zm68.15.25.06,0s0,0,0,0l-.05,0Zm12.75,58,0,0s0,0,0,0l0,0S358,154.17,358,154.15Zm70.19,0h0l0,.07,0,0Zm-22.94.41.1.06s.05,0,0,0l-.05-.07Zm9.21-57.64,0,0-.08.06,0,0Zm-94.84,42.2h-.05v.08h.06A.22.22,0,0,0,319.64,139.09ZM379,155.23l-.08,0s0,0,0,0,0,0,0,.08ZM390.87,98l.09,0s0,0,0,0h-.1Zm-60.9.27,0,0,.05,0s0,0,0,0Zm78.57,57.05.08-.05s0,0,0,0h-.11ZM290.67,127s0,0-.05,0-.08,0,0,.07.05,0,.06,0ZM266,156.77l.06,0-.07-.07,0,0ZM411.77,99.34s-.09,0-.1,0a.08.08,0,0,0,0,.09c.07,0,.12,0,.12-.07S411.79,99.37,411.77,99.34ZM345.1,157.69s0,0,.06-.07,0,0,0,0l-.1,0Zm-27.45-31.11-.08,0s0,0,0,0h.05A.22.22,0,0,0,317.65,126.58Zm69-25.89-.06,0c0,.05,0,.06.08,0A.07.07,0,0,1,386.6,100.69ZM266.4,126.53s.05-.07,0-.09-.07,0-.11,0-.05.06,0,.09S266.36,126.52,266.4,126.53Zm1.68-24.5v0l-.08,0s0,0,0,0Zm130.46,56.91h-.06s0,.05,0,.08h.06S398.54,159,398.54,158.94ZM275.47,102.46l0-.08s-.05,0-.05,0a.19.19,0,0,0,0,.08Zm88.42,56.63s0-.07-.05-.08-.1,0-.1,0,0,.06,0,.09Zm31.71-20.84h-.06l0,.06s0,0,0,0S395.6,138.26,395.6,138.25Zm-16.5,24.19a.14.14,0,0,1,0,0c-.07,0-.08,0,0,0S379.08,162.45,379.1,162.44Zm17.48.87,0,0h-.09s0,0,0,0ZM264.14,105.12v0l-.09,0,0,0Zm-2.52,59,.05,0-.07-.06,0,0Zm77.51-40.59,0,0,0,0Zm73.15,42.07,0,0-.08,0s0,0,0,0Zm-14.37-42.24h-.11s0,.05,0,.05h.1Zm14.4-1.63s0,0,0,0h-.05s0,0,0,0ZM341,168l0,0s0,0,0-.05l-.09,0Zm-23.2,1.11.05,0s0,0,0,0l-.08,0Zm-3.31.09-.07.07,0,0,.1,0Zm80.79,1.08v-.05l0,0Zm-56.42.18s0-.07-.06-.07a.13.13,0,0,0-.11,0c0,.05,0,.09.08.1S338.81,170.5,338.84,170.48Zm-50.22.56.05,0-.07-.07,0,0Zm40.29.93a.21.21,0,0,0-.1,0s0,0-.05.08.08,0,.11,0S328.9,172,328.91,172Zm-51.5.3v0l.09,0a.08.08,0,0,0,0,0Zm32.72-52.16,0,0,0,0Zm32.24,54.45v0l-.05,0Zm71.28,0-.09,0s-.05.06,0,.08.06,0,.09,0ZM316.77,137l0,0v0Zm110.48,38V175l-.09,0s0,0,0,0ZM263.18,142.92h-.05a.27.27,0,0,0,0,.09h.06A.28.28,0,0,0,263.18,142.92Zm14.47-4v0h-.09v0Zm80.66,36.18v0h-.05Zm38.42,0a.22.22,0,0,0-.05.08l0,0,.09,0Zm-47.35-56.5a.46.46,0,0,0-.07-.07l-.05,0,.07.06Zm-47.9,24.67.08.05s0,0,0,0a.18.18,0,0,0-.07-.05Zm-1.09-3.57,0,0s0,0,0,0,0,0,0,0S300.39,139.76,300.39,139.75ZM278,143.63l0,0,0,0Zm60.47,31.89.08-.07-.15-.08s-.06,0-.06.08S338.38,175.54,338.46,175.52Zm73.38-40.19-.08-.06,0,0,.08.05ZM283.4,143.88s0,0,0,0h0a.06.06,0,0,0,0,0Zm106.4-4.12,0,0h.05a0,0,0,0,0,0,0Zm-78.37-5.32s0,0,0,0h-.06l.05.07Zm-16.31-.56-.05,0c-.07,0-.08,0,0,.07a.06.06,0,0,0,.06,0S295.11,133.9,295.12,133.88Zm108.61-16.56,0,0,0,0Zm-25,59.38s0,0,0,0l-.06,0s0,0,0,0Zm12.91.05s0,0,0,0,0,0,0,0l-.07,0Zm-119.74.36.08,0,0,0-.08-.05Zm102.06,0,0,0h0Zm23.05,0s0,0,0,0,0,0-.05,0l0,.07Zm-3.46,1.5v0h-.1v0Zm14.57,3.54v0h0ZM294.7,133.29l0,0h0Zm-5.65,33.26v0H289s0,0,0,.05Zm16.34-45,0,0v0Zm30.19,46.28v0h0Zm43.3-74.67,0,0,0,0Zm23.32,87.23,0,0h0Zm-19.85-55.56,0,0,0,0Zm19.72-30.72,0,0,0,0Zm-86,14,0,0-.06,0s0,0,0,0Zm38.53,49.39,0,0s0,0-.06-.06l-.05,0ZM262,95.11h0v0Zm78.33,13.82.05,0s0,0,0,0l-.07,0Zm33.19,31.77c.06,0,.07,0,0-.06s-.05,0-.05,0S373.51,140.68,373.52,140.7Zm-80.81,10.05,0,0q-.07.06,0,.06ZM424.06,125v0l.08,0s0,0,0,0Zm-143,16.59H281l0,.06,0,0S281.1,141.62,281.1,141.6Zm97.45.32s0,0,0,0l0,0s0,0,0,0Zm-68.58.59s0,0,0,0-.07,0-.07,0Zm68.23-.08-.06-.06,0,0,.07.05ZM287,100.08a.33.33,0,0,0-.06.08s0,0,0,0l.09,0Zm118.47.37s0,0,0-.06,0,0,0,0ZM294.81,153.69l0,0,0,0Zm85.68.29,0,.06s0,0,0,0Zm-1.11-10.41s0,0,0,0l.05,0,0,0ZM276.71,171.48c-.06,0-.08,0,0,.06l.05,0S276.72,171.49,276.71,171.48Zm140,2h-.05l0,.06s0,0,0,0S416.73,173.5,416.72,173.49ZM426.9,121.9l0,0-.05,0ZM316.75,92.63h0v0Zm-28.44,1.92,0,0h.05Zm93.61,81.55,0,0h-.05ZM274,165.32l0,0,0,0Zm47,14.83,0,0h0Zm-53.59-74.72h0l0,0ZM375.55,181.9s0,0,0,0h0s0,0,0,0Zm-21.41-71.4h.05l0,0Zm-54.22,19.61,0,0,0,0Zm-12,15.78,0,0,0,0Zm-11.44-33.26a0,0,0,0,0,0,0h0s0,0,0,0S276.46,112.64,276.47,112.63Zm-15.35,26.5h-.05l0,0Zm144.7,10.2,0,0,0,0Zm-7.39,19.13v0l.05,0Zm-57.67,19.95,0,0h0Zm66.54-36.64h0v0Z" transform="translate(-0.85)"/></svg>
